# xmcd
# 
# Track frame offsets:
#     150
#     47945
#     93632
#     108554
#     119982
#     144075
#     187685
#     206378
#     229355
#     263780
# 
# Disc length: 3967
# 
# Revision: 1
# Processed by: cddbd v1.5.2PL0 Copyright (c) Steve Scherf et al.
# Submitted via: fre:ac v1.0.31
# 
DISCID=900f7d0a
DTITLE=Jazz - All Time Greatest Jazz Ballads Disc 1
DYEAR=0
DGENRE=Jazz
TTITLE0=Round Midnight - Jon Gordon
TTITLE1=Willow Weep For Me - Junior Mance
TTITLE2=Time after Time - Bob Wilber
TTITLE3=Easy Living - Teddy Wilson
TTITLE4=My Funny Valentine - Mary Lou Williams
TTITLE5=Chelsea Bridge -Gene Bertonicini
TTITLE6=Someone to watch over me - Johnny Costa
TTITLE7=I surrender dear - Joe Venuti and Zoot Sims
TTITLE8=My romance - Jay Leonhart
TTITLE9=In a setimental mood - Tate and Ibriham
EXTD=
EXTT0=
EXTT1=
EXTT2=
EXTT3=
EXTT4=
EXTT5=
EXTT6=
EXTT7=
EXTT8=
EXTT9=
PLAYORDER=
